<mxfile host="app.diagrams.net" modified="2024-03-06T12:17:51.864Z" agent="Mozilla/5.0 (Windows NT 10.0; Win64; x64) AppleWebKit/537.36 (KHTML, like Gecko) Chrome/122.0.0.0 Safari/537.36" etag="TWufJAtjVlLkJCqWJhwB" version="23.1.5" type="device">
  <diagram name="Страница — 1" id="7iARdm1VuJj5PdidJjeC">
    <mxGraphModel dx="2440" dy="1875" grid="1" gridSize="10" guides="1" tooltips="1" connect="1" arrows="1" fold="1" page="1" pageScale="1" pageWidth="827" pageHeight="1169" math="0" shadow="0">
      <root>
        <mxCell id="0" />
        <mxCell id="1" parent="0" />
        <mxCell id="FjqpXkmfoo5-FY0LMX71-1" value="ВУЗ&lt;br&gt;__________" style="rounded=0;whiteSpace=wrap;html=1;" vertex="1" parent="1">
          <mxGeometry x="60" y="80" width="120" height="60" as="geometry" />
        </mxCell>
        <mxCell id="FjqpXkmfoo5-FY0LMX71-2" value="АКО" style="ellipse;whiteSpace=wrap;html=1;" vertex="1" parent="1">
          <mxGeometry x="100" width="70" height="40" as="geometry" />
        </mxCell>
        <mxCell id="FjqpXkmfoo5-FY0LMX71-3" value="АКО" style="ellipse;whiteSpace=wrap;html=1;" vertex="1" parent="1">
          <mxGeometry x="100" y="190" width="70" height="40" as="geometry" />
        </mxCell>
        <mxCell id="FjqpXkmfoo5-FY0LMX71-4" value="ВУЗ &quot;ВЛГУ&quot;&lt;br&gt;__________&lt;br&gt;&lt;br&gt;АКО ВУЗ" style="rounded=0;whiteSpace=wrap;html=1;" vertex="1" parent="1">
          <mxGeometry x="274" y="-15" width="140" height="70" as="geometry" />
        </mxCell>
        <mxCell id="FjqpXkmfoo5-FY0LMX71-5" value="ВУЗ &quot;Владимирский медицинский филиал&quot;&lt;br&gt;__________&lt;br&gt;&lt;br&gt;АКО ВУЗ" style="rounded=0;whiteSpace=wrap;html=1;" vertex="1" parent="1">
          <mxGeometry x="274" y="170" width="141" height="80" as="geometry" />
        </mxCell>
        <mxCell id="FjqpXkmfoo5-FY0LMX71-7" value="" style="endArrow=none;html=1;rounded=0;exitX=0.11;exitY=-0.013;exitDx=0;exitDy=0;exitPerimeter=0;" edge="1" parent="1" source="FjqpXkmfoo5-FY0LMX71-1">
          <mxGeometry width="50" height="50" relative="1" as="geometry">
            <mxPoint x="390" y="220" as="sourcePoint" />
            <mxPoint x="73" y="20" as="targetPoint" />
          </mxGeometry>
        </mxCell>
        <mxCell id="FjqpXkmfoo5-FY0LMX71-8" value="" style="endArrow=none;html=1;rounded=0;entryX=0;entryY=0.5;entryDx=0;entryDy=0;" edge="1" parent="1" target="FjqpXkmfoo5-FY0LMX71-2">
          <mxGeometry width="50" height="50" relative="1" as="geometry">
            <mxPoint x="70" y="20" as="sourcePoint" />
            <mxPoint x="440" y="170" as="targetPoint" />
          </mxGeometry>
        </mxCell>
        <mxCell id="FjqpXkmfoo5-FY0LMX71-9" value="" style="endArrow=none;html=1;rounded=0;entryX=0.123;entryY=1;entryDx=0;entryDy=0;entryPerimeter=0;" edge="1" parent="1" target="FjqpXkmfoo5-FY0LMX71-1">
          <mxGeometry width="50" height="50" relative="1" as="geometry">
            <mxPoint x="75" y="210" as="sourcePoint" />
            <mxPoint x="440" y="170" as="targetPoint" />
          </mxGeometry>
        </mxCell>
        <mxCell id="FjqpXkmfoo5-FY0LMX71-10" value="" style="endArrow=none;html=1;rounded=0;" edge="1" parent="1" target="FjqpXkmfoo5-FY0LMX71-3">
          <mxGeometry width="50" height="50" relative="1" as="geometry">
            <mxPoint x="70" y="210" as="sourcePoint" />
            <mxPoint x="440" y="170" as="targetPoint" />
          </mxGeometry>
        </mxCell>
        <mxCell id="FjqpXkmfoo5-FY0LMX71-11" value="" style="endArrow=none;html=1;rounded=0;exitX=1;exitY=0.5;exitDx=0;exitDy=0;entryX=0;entryY=0.5;entryDx=0;entryDy=0;" edge="1" parent="1" source="FjqpXkmfoo5-FY0LMX71-2" target="FjqpXkmfoo5-FY0LMX71-4">
          <mxGeometry width="50" height="50" relative="1" as="geometry">
            <mxPoint x="390" y="220" as="sourcePoint" />
            <mxPoint x="440" y="170" as="targetPoint" />
          </mxGeometry>
        </mxCell>
        <mxCell id="FjqpXkmfoo5-FY0LMX71-12" value="" style="endArrow=none;html=1;rounded=0;exitX=1;exitY=0.5;exitDx=0;exitDy=0;entryX=0;entryY=0.5;entryDx=0;entryDy=0;" edge="1" parent="1" source="FjqpXkmfoo5-FY0LMX71-3" target="FjqpXkmfoo5-FY0LMX71-5">
          <mxGeometry width="50" height="50" relative="1" as="geometry">
            <mxPoint x="390" y="220" as="sourcePoint" />
            <mxPoint x="440" y="170" as="targetPoint" />
          </mxGeometry>
        </mxCell>
        <mxCell id="FjqpXkmfoo5-FY0LMX71-13" value="Слот: ВУЗ" style="ellipse;whiteSpace=wrap;html=1;" vertex="1" parent="1">
          <mxGeometry x="460" y="-15" width="170" height="30" as="geometry" />
        </mxCell>
        <mxCell id="FjqpXkmfoo5-FY0LMX71-14" value="Слот: место работы" style="ellipse;whiteSpace=wrap;html=1;" vertex="1" parent="1">
          <mxGeometry x="460" y="25" width="170" height="30" as="geometry" />
        </mxCell>
        <mxCell id="FjqpXkmfoo5-FY0LMX71-16" value="Слот: место работы" style="ellipse;whiteSpace=wrap;html=1;" vertex="1" parent="1">
          <mxGeometry x="460" y="195" width="170" height="30" as="geometry" />
        </mxCell>
        <mxCell id="FjqpXkmfoo5-FY0LMX71-17" value="" style="endArrow=none;html=1;rounded=0;entryX=0;entryY=0.5;entryDx=0;entryDy=0;exitX=1;exitY=0.25;exitDx=0;exitDy=0;" edge="1" parent="1" source="FjqpXkmfoo5-FY0LMX71-4" target="FjqpXkmfoo5-FY0LMX71-13">
          <mxGeometry width="50" height="50" relative="1" as="geometry">
            <mxPoint x="390" y="220" as="sourcePoint" />
            <mxPoint x="440" y="170" as="targetPoint" />
          </mxGeometry>
        </mxCell>
        <mxCell id="FjqpXkmfoo5-FY0LMX71-18" value="" style="endArrow=none;html=1;rounded=0;entryX=0;entryY=0.5;entryDx=0;entryDy=0;exitX=1;exitY=0.75;exitDx=0;exitDy=0;" edge="1" parent="1" source="FjqpXkmfoo5-FY0LMX71-4" target="FjqpXkmfoo5-FY0LMX71-14">
          <mxGeometry width="50" height="50" relative="1" as="geometry">
            <mxPoint x="390" y="220" as="sourcePoint" />
            <mxPoint x="440" y="170" as="targetPoint" />
          </mxGeometry>
        </mxCell>
        <mxCell id="FjqpXkmfoo5-FY0LMX71-19" value="" style="endArrow=none;html=1;rounded=0;entryX=0;entryY=0.5;entryDx=0;entryDy=0;exitX=1;exitY=0.5;exitDx=0;exitDy=0;" edge="1" parent="1" source="FjqpXkmfoo5-FY0LMX71-5" target="FjqpXkmfoo5-FY0LMX71-16">
          <mxGeometry width="50" height="50" relative="1" as="geometry">
            <mxPoint x="390" y="220" as="sourcePoint" />
            <mxPoint x="440" y="170" as="targetPoint" />
          </mxGeometry>
        </mxCell>
        <mxCell id="FjqpXkmfoo5-FY0LMX71-20" value="Семенов&lt;br&gt;__________&lt;br&gt;&lt;br&gt;АКО Преподаватель" style="rounded=0;whiteSpace=wrap;html=1;" vertex="1" parent="1">
          <mxGeometry x="475" y="270" width="140" height="70" as="geometry" />
        </mxCell>
        <mxCell id="FjqpXkmfoo5-FY0LMX71-21" value="Преподаватель&lt;br&gt;__________&lt;br&gt;&lt;br&gt;АКО Человек" style="rounded=0;whiteSpace=wrap;html=1;" vertex="1" parent="1">
          <mxGeometry x="210" y="360" width="140" height="70" as="geometry" />
        </mxCell>
        <mxCell id="FjqpXkmfoo5-FY0LMX71-22" value="АКО" style="ellipse;whiteSpace=wrap;html=1;" vertex="1" parent="1">
          <mxGeometry x="290" y="270" width="70" height="30" as="geometry" />
        </mxCell>
        <mxCell id="FjqpXkmfoo5-FY0LMX71-23" value="" style="endArrow=none;html=1;rounded=0;entryX=0.016;entryY=0.143;entryDx=0;entryDy=0;entryPerimeter=0;exitX=1;exitY=0.5;exitDx=0;exitDy=0;" edge="1" parent="1" source="FjqpXkmfoo5-FY0LMX71-22" target="FjqpXkmfoo5-FY0LMX71-20">
          <mxGeometry width="50" height="50" relative="1" as="geometry">
            <mxPoint x="390" y="420" as="sourcePoint" />
            <mxPoint x="440" y="370" as="targetPoint" />
          </mxGeometry>
        </mxCell>
        <mxCell id="FjqpXkmfoo5-FY0LMX71-24" value="" style="endArrow=none;html=1;rounded=0;entryX=0;entryY=0.5;entryDx=0;entryDy=0;" edge="1" parent="1" target="FjqpXkmfoo5-FY0LMX71-22">
          <mxGeometry width="50" height="50" relative="1" as="geometry">
            <mxPoint x="240" y="285" as="sourcePoint" />
            <mxPoint x="440" y="370" as="targetPoint" />
          </mxGeometry>
        </mxCell>
        <mxCell id="FjqpXkmfoo5-FY0LMX71-25" value="" style="endArrow=none;html=1;rounded=0;exitX=0.2;exitY=0;exitDx=0;exitDy=0;exitPerimeter=0;" edge="1" parent="1" source="FjqpXkmfoo5-FY0LMX71-21">
          <mxGeometry width="50" height="50" relative="1" as="geometry">
            <mxPoint x="240" y="320" as="sourcePoint" />
            <mxPoint x="240" y="280" as="targetPoint" />
          </mxGeometry>
        </mxCell>
        <mxCell id="FjqpXkmfoo5-FY0LMX71-26" value="Иванова&lt;br&gt;__________&lt;br&gt;&lt;br&gt;АКО Преподаватель" style="rounded=0;whiteSpace=wrap;html=1;" vertex="1" parent="1">
          <mxGeometry x="475" y="360" width="140" height="70" as="geometry" />
        </mxCell>
        <mxCell id="FjqpXkmfoo5-FY0LMX71-27" value="Петров&lt;br&gt;__________&lt;br&gt;&lt;br&gt;АКО Преподаватель" style="rounded=0;whiteSpace=wrap;html=1;" vertex="1" parent="1">
          <mxGeometry x="475" y="450" width="140" height="80" as="geometry" />
        </mxCell>
        <mxCell id="FjqpXkmfoo5-FY0LMX71-28" value="АКО" style="ellipse;whiteSpace=wrap;html=1;" vertex="1" parent="1">
          <mxGeometry x="379" y="380" width="70" height="30" as="geometry" />
        </mxCell>
        <mxCell id="FjqpXkmfoo5-FY0LMX71-29" value="АКО" style="ellipse;whiteSpace=wrap;html=1;" vertex="1" parent="1">
          <mxGeometry x="300" y="480" width="70" height="30" as="geometry" />
        </mxCell>
        <mxCell id="FjqpXkmfoo5-FY0LMX71-30" value="" style="endArrow=none;html=1;rounded=0;entryX=0;entryY=0.5;entryDx=0;entryDy=0;exitX=1;exitY=0.5;exitDx=0;exitDy=0;" edge="1" parent="1" source="FjqpXkmfoo5-FY0LMX71-28" target="FjqpXkmfoo5-FY0LMX71-26">
          <mxGeometry width="50" height="50" relative="1" as="geometry">
            <mxPoint x="390" y="420" as="sourcePoint" />
            <mxPoint x="440" y="370" as="targetPoint" />
          </mxGeometry>
        </mxCell>
        <mxCell id="FjqpXkmfoo5-FY0LMX71-31" value="" style="endArrow=none;html=1;rounded=0;exitX=0;exitY=0.5;exitDx=0;exitDy=0;entryX=1;entryY=0.5;entryDx=0;entryDy=0;" edge="1" parent="1" source="FjqpXkmfoo5-FY0LMX71-28" target="FjqpXkmfoo5-FY0LMX71-21">
          <mxGeometry width="50" height="50" relative="1" as="geometry">
            <mxPoint x="390" y="420" as="sourcePoint" />
            <mxPoint x="440" y="370" as="targetPoint" />
          </mxGeometry>
        </mxCell>
        <mxCell id="FjqpXkmfoo5-FY0LMX71-32" value="" style="endArrow=none;html=1;rounded=0;exitX=1;exitY=0.5;exitDx=0;exitDy=0;" edge="1" parent="1" source="FjqpXkmfoo5-FY0LMX71-29">
          <mxGeometry width="50" height="50" relative="1" as="geometry">
            <mxPoint x="390" y="420" as="sourcePoint" />
            <mxPoint x="470" y="495" as="targetPoint" />
          </mxGeometry>
        </mxCell>
        <mxCell id="FjqpXkmfoo5-FY0LMX71-33" value="" style="endArrow=none;html=1;rounded=0;exitX=0;exitY=0.5;exitDx=0;exitDy=0;" edge="1" parent="1" source="FjqpXkmfoo5-FY0LMX71-29">
          <mxGeometry width="50" height="50" relative="1" as="geometry">
            <mxPoint x="390" y="420" as="sourcePoint" />
            <mxPoint x="240" y="495" as="targetPoint" />
          </mxGeometry>
        </mxCell>
        <mxCell id="FjqpXkmfoo5-FY0LMX71-34" value="" style="endArrow=none;html=1;rounded=0;entryX=0.25;entryY=1;entryDx=0;entryDy=0;" edge="1" parent="1" target="FjqpXkmfoo5-FY0LMX71-21">
          <mxGeometry width="50" height="50" relative="1" as="geometry">
            <mxPoint x="245" y="500" as="sourcePoint" />
            <mxPoint x="440" y="370" as="targetPoint" />
          </mxGeometry>
        </mxCell>
        <mxCell id="FjqpXkmfoo5-FY0LMX71-35" value="Человек&lt;br&gt;__________&lt;div&gt;&lt;br&gt;&lt;/div&gt;" style="rounded=0;whiteSpace=wrap;html=1;" vertex="1" parent="1">
          <mxGeometry x="-100" y="550" width="140" height="70" as="geometry" />
        </mxCell>
        <mxCell id="FjqpXkmfoo5-FY0LMX71-36" value="Руководитель деканата&lt;br&gt;__________&lt;br&gt;&lt;br&gt;АКО Человек" style="rounded=0;whiteSpace=wrap;html=1;" vertex="1" parent="1">
          <mxGeometry x="200" y="550" width="140" height="70" as="geometry" />
        </mxCell>
        <mxCell id="FjqpXkmfoo5-FY0LMX71-37" value="Бухгалтер&lt;br&gt;__________&lt;br&gt;&lt;br&gt;АКО Человек" style="rounded=0;whiteSpace=wrap;html=1;" vertex="1" parent="1">
          <mxGeometry x="200" y="660" width="140" height="70" as="geometry" />
        </mxCell>
        <mxCell id="FjqpXkmfoo5-FY0LMX71-38" value="Студент&lt;br&gt;__________&lt;br&gt;&lt;br&gt;АКО Человек" style="rounded=0;whiteSpace=wrap;html=1;" vertex="1" parent="1">
          <mxGeometry x="200" y="770" width="140" height="70" as="geometry" />
        </mxCell>
        <mxCell id="FjqpXkmfoo5-FY0LMX71-39" value="АКО" style="ellipse;whiteSpace=wrap;html=1;" vertex="1" parent="1">
          <mxGeometry x="90" y="570" width="70" height="30" as="geometry" />
        </mxCell>
        <mxCell id="FjqpXkmfoo5-FY0LMX71-40" value="АКО" style="ellipse;whiteSpace=wrap;html=1;" vertex="1" parent="1">
          <mxGeometry x="30" y="680" width="70" height="30" as="geometry" />
        </mxCell>
        <mxCell id="FjqpXkmfoo5-FY0LMX71-41" value="АКО" style="ellipse;whiteSpace=wrap;html=1;" vertex="1" parent="1">
          <mxGeometry x="-65" y="800" width="70" height="30" as="geometry" />
        </mxCell>
        <mxCell id="FjqpXkmfoo5-FY0LMX71-42" value="" style="endArrow=none;html=1;rounded=0;entryX=0;entryY=0.5;entryDx=0;entryDy=0;exitX=1;exitY=0.5;exitDx=0;exitDy=0;" edge="1" parent="1" source="FjqpXkmfoo5-FY0LMX71-39" target="FjqpXkmfoo5-FY0LMX71-36">
          <mxGeometry width="50" height="50" relative="1" as="geometry">
            <mxPoint x="390" y="620" as="sourcePoint" />
            <mxPoint x="440" y="570" as="targetPoint" />
          </mxGeometry>
        </mxCell>
        <mxCell id="FjqpXkmfoo5-FY0LMX71-43" value="" style="endArrow=none;html=1;rounded=0;exitX=0;exitY=0.5;exitDx=0;exitDy=0;entryX=1;entryY=0.5;entryDx=0;entryDy=0;" edge="1" parent="1" source="FjqpXkmfoo5-FY0LMX71-39" target="FjqpXkmfoo5-FY0LMX71-35">
          <mxGeometry width="50" height="50" relative="1" as="geometry">
            <mxPoint x="390" y="620" as="sourcePoint" />
            <mxPoint x="440" y="570" as="targetPoint" />
          </mxGeometry>
        </mxCell>
        <mxCell id="FjqpXkmfoo5-FY0LMX71-44" value="" style="endArrow=none;html=1;rounded=0;entryX=0;entryY=0.5;entryDx=0;entryDy=0;exitX=1;exitY=0.5;exitDx=0;exitDy=0;" edge="1" parent="1" source="FjqpXkmfoo5-FY0LMX71-40" target="FjqpXkmfoo5-FY0LMX71-37">
          <mxGeometry width="50" height="50" relative="1" as="geometry">
            <mxPoint x="390" y="620" as="sourcePoint" />
            <mxPoint x="440" y="570" as="targetPoint" />
          </mxGeometry>
        </mxCell>
        <mxCell id="FjqpXkmfoo5-FY0LMX71-45" value="" style="endArrow=none;html=1;rounded=0;exitX=0;exitY=0.5;exitDx=0;exitDy=0;" edge="1" parent="1" source="FjqpXkmfoo5-FY0LMX71-40">
          <mxGeometry width="50" height="50" relative="1" as="geometry">
            <mxPoint x="390" y="620" as="sourcePoint" />
            <mxPoint y="695" as="targetPoint" />
          </mxGeometry>
        </mxCell>
        <mxCell id="FjqpXkmfoo5-FY0LMX71-46" value="" style="endArrow=none;html=1;rounded=0;entryX=0.75;entryY=1;entryDx=0;entryDy=0;" edge="1" parent="1" target="FjqpXkmfoo5-FY0LMX71-35">
          <mxGeometry width="50" height="50" relative="1" as="geometry">
            <mxPoint x="5" y="700" as="sourcePoint" />
            <mxPoint x="440" y="570" as="targetPoint" />
          </mxGeometry>
        </mxCell>
        <mxCell id="FjqpXkmfoo5-FY0LMX71-47" value="" style="endArrow=none;html=1;rounded=0;exitX=-0.007;exitY=0.646;exitDx=0;exitDy=0;entryX=1;entryY=0.5;entryDx=0;entryDy=0;exitPerimeter=0;" edge="1" parent="1" source="FjqpXkmfoo5-FY0LMX71-38" target="FjqpXkmfoo5-FY0LMX71-41">
          <mxGeometry width="50" height="50" relative="1" as="geometry">
            <mxPoint x="390" y="620" as="sourcePoint" />
            <mxPoint x="440" y="570" as="targetPoint" />
          </mxGeometry>
        </mxCell>
        <mxCell id="FjqpXkmfoo5-FY0LMX71-48" value="" style="endArrow=none;html=1;rounded=0;exitX=0.5;exitY=0;exitDx=0;exitDy=0;entryX=0.5;entryY=1;entryDx=0;entryDy=0;" edge="1" parent="1" source="FjqpXkmfoo5-FY0LMX71-41" target="FjqpXkmfoo5-FY0LMX71-35">
          <mxGeometry width="50" height="50" relative="1" as="geometry">
            <mxPoint x="390" y="620" as="sourcePoint" />
            <mxPoint x="440" y="570" as="targetPoint" />
          </mxGeometry>
        </mxCell>
        <mxCell id="FjqpXkmfoo5-FY0LMX71-49" value="Парахин Кирилл&lt;br&gt;__________&lt;br&gt;&lt;br&gt;АКО Студент" style="rounded=0;whiteSpace=wrap;html=1;" vertex="1" parent="1">
          <mxGeometry x="475" y="770" width="140" height="70" as="geometry" />
        </mxCell>
        <mxCell id="FjqpXkmfoo5-FY0LMX71-50" value="" style="endArrow=classic;html=1;rounded=0;exitX=0.5;exitY=1;exitDx=0;exitDy=0;entryX=0.5;entryY=0;entryDx=0;entryDy=0;" edge="1" parent="1" source="FjqpXkmfoo5-FY0LMX71-16" target="FjqpXkmfoo5-FY0LMX71-20">
          <mxGeometry width="50" height="50" relative="1" as="geometry">
            <mxPoint x="390" y="320" as="sourcePoint" />
            <mxPoint x="440" y="270" as="targetPoint" />
          </mxGeometry>
        </mxCell>
        <mxCell id="FjqpXkmfoo5-FY0LMX71-51" value="АКО" style="ellipse;whiteSpace=wrap;html=1;" vertex="1" parent="1">
          <mxGeometry x="370" y="790" width="70" height="30" as="geometry" />
        </mxCell>
        <mxCell id="FjqpXkmfoo5-FY0LMX71-52" value="" style="endArrow=none;html=1;rounded=0;entryX=0;entryY=0.5;entryDx=0;entryDy=0;exitX=1;exitY=0.5;exitDx=0;exitDy=0;" edge="1" parent="1" source="FjqpXkmfoo5-FY0LMX71-51" target="FjqpXkmfoo5-FY0LMX71-49">
          <mxGeometry width="50" height="50" relative="1" as="geometry">
            <mxPoint x="390" y="720" as="sourcePoint" />
            <mxPoint x="440" y="670" as="targetPoint" />
          </mxGeometry>
        </mxCell>
        <mxCell id="FjqpXkmfoo5-FY0LMX71-53" value="" style="endArrow=none;html=1;rounded=0;exitX=1;exitY=0.5;exitDx=0;exitDy=0;entryX=0;entryY=0.5;entryDx=0;entryDy=0;" edge="1" parent="1" source="FjqpXkmfoo5-FY0LMX71-38" target="FjqpXkmfoo5-FY0LMX71-51">
          <mxGeometry width="50" height="50" relative="1" as="geometry">
            <mxPoint x="390" y="720" as="sourcePoint" />
            <mxPoint x="440" y="670" as="targetPoint" />
          </mxGeometry>
        </mxCell>
        <mxCell id="FjqpXkmfoo5-FY0LMX71-54" value="" style="endArrow=none;html=1;rounded=0;entryX=1;entryY=0.5;entryDx=0;entryDy=0;" edge="1" parent="1" target="FjqpXkmfoo5-FY0LMX71-14">
          <mxGeometry width="50" height="50" relative="1" as="geometry">
            <mxPoint x="690" y="40" as="sourcePoint" />
            <mxPoint x="440" y="170" as="targetPoint" />
          </mxGeometry>
        </mxCell>
        <mxCell id="FjqpXkmfoo5-FY0LMX71-55" value="" style="endArrow=none;html=1;rounded=0;" edge="1" parent="1">
          <mxGeometry width="50" height="50" relative="1" as="geometry">
            <mxPoint x="690" y="700" as="sourcePoint" />
            <mxPoint x="690" y="40" as="targetPoint" />
          </mxGeometry>
        </mxCell>
        <mxCell id="FjqpXkmfoo5-FY0LMX71-56" value="" style="endArrow=classic;html=1;rounded=0;entryX=0.999;entryY=0.617;entryDx=0;entryDy=0;entryPerimeter=0;" edge="1" parent="1" target="FjqpXkmfoo5-FY0LMX71-37">
          <mxGeometry width="50" height="50" relative="1" as="geometry">
            <mxPoint x="380" y="703" as="sourcePoint" />
            <mxPoint x="440" y="570" as="targetPoint" />
          </mxGeometry>
        </mxCell>
        <mxCell id="FjqpXkmfoo5-FY0LMX71-57" value="" style="endArrow=classic;html=1;rounded=0;entryX=1;entryY=0.5;entryDx=0;entryDy=0;" edge="1" parent="1" target="FjqpXkmfoo5-FY0LMX71-36">
          <mxGeometry width="50" height="50" relative="1" as="geometry">
            <mxPoint x="380" y="585" as="sourcePoint" />
            <mxPoint x="440" y="570" as="targetPoint" />
          </mxGeometry>
        </mxCell>
        <mxCell id="FjqpXkmfoo5-FY0LMX71-58" value="" style="endArrow=classic;html=1;rounded=0;" edge="1" parent="1">
          <mxGeometry width="50" height="50" relative="1" as="geometry">
            <mxPoint x="690" y="470" as="sourcePoint" />
            <mxPoint x="610" y="470" as="targetPoint" />
          </mxGeometry>
        </mxCell>
        <mxCell id="FjqpXkmfoo5-FY0LMX71-59" value="" style="endArrow=classic;html=1;rounded=0;entryX=1;entryY=0.5;entryDx=0;entryDy=0;" edge="1" parent="1" target="FjqpXkmfoo5-FY0LMX71-26">
          <mxGeometry width="50" height="50" relative="1" as="geometry">
            <mxPoint x="690" y="395" as="sourcePoint" />
            <mxPoint x="440" y="370" as="targetPoint" />
          </mxGeometry>
        </mxCell>
        <mxCell id="FjqpXkmfoo5-FY0LMX71-60" value="Посещение экзамена&lt;br&gt;__________&lt;br&gt;&lt;div&gt;&lt;br&gt;&lt;/div&gt;" style="rounded=0;whiteSpace=wrap;html=1;" vertex="1" parent="1">
          <mxGeometry x="120" y="970" width="140" height="70" as="geometry" />
        </mxCell>
        <mxCell id="FjqpXkmfoo5-FY0LMX71-61" value="Посещение экзамена в ВЛГУ&lt;br&gt;__________&lt;br&gt;&lt;div&gt;&lt;br&gt;&lt;/div&gt;" style="rounded=0;whiteSpace=wrap;html=1;" vertex="1" parent="1">
          <mxGeometry x="475" y="970" width="140" height="70" as="geometry" />
        </mxCell>
        <mxCell id="FjqpXkmfoo5-FY0LMX71-62" value="Слот: студент" style="ellipse;whiteSpace=wrap;html=1;" vertex="1" parent="1">
          <mxGeometry x="460" y="870" width="170" height="30" as="geometry" />
        </mxCell>
        <mxCell id="FjqpXkmfoo5-FY0LMX71-64" value="" style="endArrow=none;html=1;rounded=0;entryX=0.5;entryY=1;entryDx=0;entryDy=0;exitX=0.5;exitY=0;exitDx=0;exitDy=0;" edge="1" parent="1" source="FjqpXkmfoo5-FY0LMX71-62" target="FjqpXkmfoo5-FY0LMX71-49">
          <mxGeometry width="50" height="50" relative="1" as="geometry">
            <mxPoint x="380" y="860" as="sourcePoint" />
            <mxPoint x="430" y="810" as="targetPoint" />
          </mxGeometry>
        </mxCell>
        <mxCell id="FjqpXkmfoo5-FY0LMX71-65" value="" style="endArrow=classic;html=1;rounded=0;exitX=0.5;exitY=1;exitDx=0;exitDy=0;entryX=0.5;entryY=0;entryDx=0;entryDy=0;" edge="1" parent="1" source="FjqpXkmfoo5-FY0LMX71-62" target="FjqpXkmfoo5-FY0LMX71-61">
          <mxGeometry width="50" height="50" relative="1" as="geometry">
            <mxPoint x="380" y="860" as="sourcePoint" />
            <mxPoint x="430" y="810" as="targetPoint" />
          </mxGeometry>
        </mxCell>
        <mxCell id="FjqpXkmfoo5-FY0LMX71-66" value="АКО" style="ellipse;whiteSpace=wrap;html=1;" vertex="1" parent="1">
          <mxGeometry x="320" y="990" width="70" height="30" as="geometry" />
        </mxCell>
        <mxCell id="FjqpXkmfoo5-FY0LMX71-67" value="" style="endArrow=none;html=1;rounded=0;exitX=1;exitY=0.5;exitDx=0;exitDy=0;" edge="1" parent="1" source="FjqpXkmfoo5-FY0LMX71-60" target="FjqpXkmfoo5-FY0LMX71-66">
          <mxGeometry width="50" height="50" relative="1" as="geometry">
            <mxPoint x="380" y="860" as="sourcePoint" />
            <mxPoint x="430" y="810" as="targetPoint" />
          </mxGeometry>
        </mxCell>
        <mxCell id="FjqpXkmfoo5-FY0LMX71-68" value="" style="endArrow=none;html=1;rounded=0;exitX=1;exitY=0.5;exitDx=0;exitDy=0;entryX=0;entryY=0.5;entryDx=0;entryDy=0;" edge="1" parent="1" source="FjqpXkmfoo5-FY0LMX71-66" target="FjqpXkmfoo5-FY0LMX71-61">
          <mxGeometry width="50" height="50" relative="1" as="geometry">
            <mxPoint x="380" y="860" as="sourcePoint" />
            <mxPoint x="430" y="810" as="targetPoint" />
          </mxGeometry>
        </mxCell>
        <mxCell id="FjqpXkmfoo5-FY0LMX71-69" value="" style="endArrow=none;html=1;rounded=0;entryX=1;entryY=0.5;entryDx=0;entryDy=0;" edge="1" parent="1" target="FjqpXkmfoo5-FY0LMX71-27">
          <mxGeometry width="50" height="50" relative="1" as="geometry">
            <mxPoint x="730" y="490" as="sourcePoint" />
            <mxPoint x="430" y="810" as="targetPoint" />
          </mxGeometry>
        </mxCell>
        <mxCell id="FjqpXkmfoo5-FY0LMX71-70" value="" style="endArrow=none;html=1;rounded=0;" edge="1" parent="1">
          <mxGeometry width="50" height="50" relative="1" as="geometry">
            <mxPoint x="730" y="910" as="sourcePoint" />
            <mxPoint x="730" y="490" as="targetPoint" />
          </mxGeometry>
        </mxCell>
        <mxCell id="FjqpXkmfoo5-FY0LMX71-71" value="" style="endArrow=classic;html=1;rounded=0;entryX=1;entryY=0.25;entryDx=0;entryDy=0;" edge="1" parent="1" target="FjqpXkmfoo5-FY0LMX71-61">
          <mxGeometry width="50" height="50" relative="1" as="geometry">
            <mxPoint x="740" y="988" as="sourcePoint" />
            <mxPoint x="430" y="910" as="targetPoint" />
          </mxGeometry>
        </mxCell>
        <mxCell id="FjqpXkmfoo5-FY0LMX71-72" value="Слот: преподаватель" style="ellipse;whiteSpace=wrap;html=1;" vertex="1" parent="1">
          <mxGeometry x="650" y="910" width="170" height="30" as="geometry" />
        </mxCell>
        <mxCell id="FjqpXkmfoo5-FY0LMX71-73" value="" style="endArrow=none;html=1;rounded=0;entryX=0.5;entryY=1;entryDx=0;entryDy=0;" edge="1" parent="1" target="FjqpXkmfoo5-FY0LMX71-72">
          <mxGeometry width="50" height="50" relative="1" as="geometry">
            <mxPoint x="735" y="990" as="sourcePoint" />
            <mxPoint x="430" y="810" as="targetPoint" />
          </mxGeometry>
        </mxCell>
        <mxCell id="FjqpXkmfoo5-FY0LMX71-75" value="Экзамен Парахина Кирилла&lt;br&gt;__________&lt;br&gt;&lt;div&gt;&lt;br&gt;&lt;/div&gt;" style="rounded=0;whiteSpace=wrap;html=1;" vertex="1" parent="1">
          <mxGeometry x="152.5" y="1150" width="140" height="70" as="geometry" />
        </mxCell>
        <mxCell id="FjqpXkmfoo5-FY0LMX71-76" value="Слот: сцена 3" style="ellipse;whiteSpace=wrap;html=1;" vertex="1" parent="1">
          <mxGeometry x="170" y="1080" width="105" height="30" as="geometry" />
        </mxCell>
        <mxCell id="FjqpXkmfoo5-FY0LMX71-77" value="" style="endArrow=none;html=1;rounded=0;exitX=0.5;exitY=0;exitDx=0;exitDy=0;" edge="1" parent="1" source="FjqpXkmfoo5-FY0LMX71-76">
          <mxGeometry width="50" height="50" relative="1" as="geometry">
            <mxPoint x="380" y="1110" as="sourcePoint" />
            <mxPoint x="223" y="1040" as="targetPoint" />
          </mxGeometry>
        </mxCell>
        <mxCell id="FjqpXkmfoo5-FY0LMX71-78" value="" style="endArrow=classic;html=1;rounded=0;exitX=0.5;exitY=1;exitDx=0;exitDy=0;" edge="1" parent="1" source="FjqpXkmfoo5-FY0LMX71-76" target="FjqpXkmfoo5-FY0LMX71-75">
          <mxGeometry width="50" height="50" relative="1" as="geometry">
            <mxPoint x="380" y="1110" as="sourcePoint" />
            <mxPoint x="430" y="1060" as="targetPoint" />
          </mxGeometry>
        </mxCell>
        <mxCell id="FjqpXkmfoo5-FY0LMX71-79" value="Краснов&lt;br&gt;__________&lt;br&gt;&lt;br&gt;АКО Руководитель деканата" style="rounded=0;whiteSpace=wrap;html=1;" vertex="1" parent="1">
          <mxGeometry x="475" y="550" width="140" height="80" as="geometry" />
        </mxCell>
        <mxCell id="FjqpXkmfoo5-FY0LMX71-80" value="Емельянов&lt;br&gt;__________&lt;br&gt;&lt;br&gt;АКО Бухгалтер" style="rounded=0;whiteSpace=wrap;html=1;" vertex="1" parent="1">
          <mxGeometry x="470" y="670" width="140" height="70" as="geometry" />
        </mxCell>
        <mxCell id="FjqpXkmfoo5-FY0LMX71-83" value="" style="endArrow=none;html=1;rounded=0;entryX=1;entryY=0.5;entryDx=0;entryDy=0;" edge="1" parent="1" target="FjqpXkmfoo5-FY0LMX71-79">
          <mxGeometry width="50" height="50" relative="1" as="geometry">
            <mxPoint x="840" y="590" as="sourcePoint" />
            <mxPoint x="430" y="640" as="targetPoint" />
          </mxGeometry>
        </mxCell>
        <mxCell id="FjqpXkmfoo5-FY0LMX71-84" value="" style="endArrow=none;html=1;rounded=0;" edge="1" parent="1">
          <mxGeometry width="50" height="50" relative="1" as="geometry">
            <mxPoint x="840" y="770" as="sourcePoint" />
            <mxPoint x="840" y="590" as="targetPoint" />
          </mxGeometry>
        </mxCell>
        <mxCell id="FjqpXkmfoo5-FY0LMX71-85" value="Слот: рук. деканата" style="ellipse;whiteSpace=wrap;html=1;" vertex="1" parent="1">
          <mxGeometry x="760" y="770" width="170" height="30" as="geometry" />
        </mxCell>
        <mxCell id="FjqpXkmfoo5-FY0LMX71-86" value="" style="endArrow=none;html=1;rounded=0;entryX=0.5;entryY=1;entryDx=0;entryDy=0;" edge="1" parent="1" target="FjqpXkmfoo5-FY0LMX71-85">
          <mxGeometry width="50" height="50" relative="1" as="geometry">
            <mxPoint x="845" y="1020" as="sourcePoint" />
            <mxPoint x="430" y="850" as="targetPoint" />
          </mxGeometry>
        </mxCell>
        <mxCell id="FjqpXkmfoo5-FY0LMX71-87" value="" style="endArrow=classic;html=1;rounded=0;entryX=1.012;entryY=0.648;entryDx=0;entryDy=0;entryPerimeter=0;" edge="1" parent="1" target="FjqpXkmfoo5-FY0LMX71-61">
          <mxGeometry width="50" height="50" relative="1" as="geometry">
            <mxPoint x="850" y="1015" as="sourcePoint" />
            <mxPoint x="430" y="850" as="targetPoint" />
          </mxGeometry>
        </mxCell>
        <mxCell id="FjqpXkmfoo5-FY0LMX71-88" value="Простановка оценки&lt;br&gt;Парахина Кирилла&lt;br&gt;__________&lt;br&gt;&lt;div&gt;&lt;br&gt;&lt;/div&gt;" style="rounded=0;whiteSpace=wrap;html=1;" vertex="1" parent="1">
          <mxGeometry x="90" y="1340" width="140" height="70" as="geometry" />
        </mxCell>
        <mxCell id="FjqpXkmfoo5-FY0LMX71-89" value="Слот: сцена 4" style="ellipse;whiteSpace=wrap;html=1;" vertex="1" parent="1">
          <mxGeometry x="82.5" y="1270" width="105" height="30" as="geometry" />
        </mxCell>
        <mxCell id="FjqpXkmfoo5-FY0LMX71-90" value="" style="endArrow=none;html=1;rounded=0;entryX=0.095;entryY=1.033;entryDx=0;entryDy=0;entryPerimeter=0;exitX=0.5;exitY=0;exitDx=0;exitDy=0;" edge="1" parent="1" source="FjqpXkmfoo5-FY0LMX71-89" target="FjqpXkmfoo5-FY0LMX71-60">
          <mxGeometry width="50" height="50" relative="1" as="geometry">
            <mxPoint x="380" y="1220" as="sourcePoint" />
            <mxPoint x="430" y="1170" as="targetPoint" />
          </mxGeometry>
        </mxCell>
        <mxCell id="FjqpXkmfoo5-FY0LMX71-91" value="" style="endArrow=classic;html=1;rounded=0;exitX=0.5;exitY=1;exitDx=0;exitDy=0;entryX=0.327;entryY=0.018;entryDx=0;entryDy=0;entryPerimeter=0;" edge="1" parent="1" source="FjqpXkmfoo5-FY0LMX71-89" target="FjqpXkmfoo5-FY0LMX71-88">
          <mxGeometry width="50" height="50" relative="1" as="geometry">
            <mxPoint x="380" y="1220" as="sourcePoint" />
            <mxPoint x="430" y="1170" as="targetPoint" />
          </mxGeometry>
        </mxCell>
        <mxCell id="FjqpXkmfoo5-FY0LMX71-92" value="АКО" style="ellipse;whiteSpace=wrap;html=1;" vertex="1" parent="1">
          <mxGeometry x="330" y="1169" width="70" height="30" as="geometry" />
        </mxCell>
        <mxCell id="FjqpXkmfoo5-FY0LMX71-93" value="АКО" style="ellipse;whiteSpace=wrap;html=1;" vertex="1" parent="1">
          <mxGeometry x="300" y="1360" width="70" height="30" as="geometry" />
        </mxCell>
        <mxCell id="FjqpXkmfoo5-FY0LMX71-94" value="Экзамен&lt;br&gt;__________&lt;br&gt;&lt;div&gt;&lt;br&gt;&lt;/div&gt;" style="rounded=0;whiteSpace=wrap;html=1;" vertex="1" parent="1">
          <mxGeometry x="440" y="1149" width="140" height="70" as="geometry" />
        </mxCell>
        <mxCell id="FjqpXkmfoo5-FY0LMX71-95" value="Простановка оценки&lt;br&gt;__________&lt;br&gt;&lt;div&gt;&lt;br&gt;&lt;/div&gt;" style="rounded=0;whiteSpace=wrap;html=1;" vertex="1" parent="1">
          <mxGeometry x="440" y="1340" width="140" height="70" as="geometry" />
        </mxCell>
        <mxCell id="FjqpXkmfoo5-FY0LMX71-96" value="" style="endArrow=none;html=1;rounded=0;exitX=1;exitY=0.5;exitDx=0;exitDy=0;" edge="1" parent="1" source="FjqpXkmfoo5-FY0LMX71-93" target="FjqpXkmfoo5-FY0LMX71-95">
          <mxGeometry width="50" height="50" relative="1" as="geometry">
            <mxPoint x="260" y="1380" as="sourcePoint" />
            <mxPoint x="310" y="1330" as="targetPoint" />
          </mxGeometry>
        </mxCell>
        <mxCell id="FjqpXkmfoo5-FY0LMX71-97" value="" style="endArrow=none;html=1;rounded=0;entryX=0;entryY=0.5;entryDx=0;entryDy=0;exitX=1;exitY=0.5;exitDx=0;exitDy=0;" edge="1" parent="1" source="FjqpXkmfoo5-FY0LMX71-92" target="FjqpXkmfoo5-FY0LMX71-94">
          <mxGeometry width="50" height="50" relative="1" as="geometry">
            <mxPoint x="380" y="1220" as="sourcePoint" />
            <mxPoint x="430" y="1170" as="targetPoint" />
          </mxGeometry>
        </mxCell>
        <mxCell id="FjqpXkmfoo5-FY0LMX71-98" value="" style="endArrow=classic;html=1;rounded=0;entryX=1;entryY=0.5;entryDx=0;entryDy=0;exitX=0;exitY=0.5;exitDx=0;exitDy=0;" edge="1" parent="1" source="FjqpXkmfoo5-FY0LMX71-92" target="FjqpXkmfoo5-FY0LMX71-75">
          <mxGeometry width="50" height="50" relative="1" as="geometry">
            <mxPoint x="380" y="1220" as="sourcePoint" />
            <mxPoint x="430" y="1170" as="targetPoint" />
          </mxGeometry>
        </mxCell>
        <mxCell id="FjqpXkmfoo5-FY0LMX71-99" value="" style="endArrow=classic;html=1;rounded=0;exitX=0;exitY=0.5;exitDx=0;exitDy=0;" edge="1" parent="1" source="FjqpXkmfoo5-FY0LMX71-93" target="FjqpXkmfoo5-FY0LMX71-88">
          <mxGeometry width="50" height="50" relative="1" as="geometry">
            <mxPoint x="280" y="1340" as="sourcePoint" />
            <mxPoint x="430" y="1170" as="targetPoint" />
          </mxGeometry>
        </mxCell>
        <mxCell id="FjqpXkmfoo5-FY0LMX71-100" value="Слот: экзамен сдал" style="ellipse;whiteSpace=wrap;html=1;" vertex="1" parent="1">
          <mxGeometry x="680" y="1139" width="170" height="30" as="geometry" />
        </mxCell>
        <mxCell id="FjqpXkmfoo5-FY0LMX71-101" value="Слот: экзамен принял" style="ellipse;whiteSpace=wrap;html=1;" vertex="1" parent="1">
          <mxGeometry x="680" y="1189" width="170" height="30" as="geometry" />
        </mxCell>
        <mxCell id="FjqpXkmfoo5-FY0LMX71-102" value="Слот: оценку поставил" style="ellipse;whiteSpace=wrap;html=1;" vertex="1" parent="1">
          <mxGeometry x="680" y="1330" width="170" height="30" as="geometry" />
        </mxCell>
        <mxCell id="FjqpXkmfoo5-FY0LMX71-103" value="Слот: факт проставил" style="ellipse;whiteSpace=wrap;html=1;" vertex="1" parent="1">
          <mxGeometry x="680" y="1380" width="170" height="30" as="geometry" />
        </mxCell>
        <mxCell id="FjqpXkmfoo5-FY0LMX71-104" value="" style="endArrow=classic;html=1;rounded=0;exitX=0;exitY=0.5;exitDx=0;exitDy=0;entryX=0.997;entryY=0.136;entryDx=0;entryDy=0;entryPerimeter=0;" edge="1" parent="1" source="FjqpXkmfoo5-FY0LMX71-100" target="FjqpXkmfoo5-FY0LMX71-94">
          <mxGeometry width="50" height="50" relative="1" as="geometry">
            <mxPoint x="380" y="1220" as="sourcePoint" />
            <mxPoint x="430" y="1170" as="targetPoint" />
          </mxGeometry>
        </mxCell>
        <mxCell id="FjqpXkmfoo5-FY0LMX71-105" value="" style="endArrow=classic;html=1;rounded=0;exitX=0;exitY=0.5;exitDx=0;exitDy=0;entryX=1;entryY=0.75;entryDx=0;entryDy=0;" edge="1" parent="1" source="FjqpXkmfoo5-FY0LMX71-101" target="FjqpXkmfoo5-FY0LMX71-94">
          <mxGeometry width="50" height="50" relative="1" as="geometry">
            <mxPoint x="380" y="1220" as="sourcePoint" />
            <mxPoint x="430" y="1170" as="targetPoint" />
          </mxGeometry>
        </mxCell>
        <mxCell id="FjqpXkmfoo5-FY0LMX71-106" value="" style="endArrow=classic;html=1;rounded=0;exitX=0;exitY=0.5;exitDx=0;exitDy=0;" edge="1" parent="1" source="FjqpXkmfoo5-FY0LMX71-102">
          <mxGeometry width="50" height="50" relative="1" as="geometry">
            <mxPoint x="380" y="1220" as="sourcePoint" />
            <mxPoint x="580" y="1350" as="targetPoint" />
          </mxGeometry>
        </mxCell>
        <mxCell id="FjqpXkmfoo5-FY0LMX71-107" value="" style="endArrow=classic;html=1;rounded=0;exitX=0;exitY=0.5;exitDx=0;exitDy=0;" edge="1" parent="1" source="FjqpXkmfoo5-FY0LMX71-103">
          <mxGeometry width="50" height="50" relative="1" as="geometry">
            <mxPoint x="380" y="1220" as="sourcePoint" />
            <mxPoint x="580" y="1395" as="targetPoint" />
          </mxGeometry>
        </mxCell>
        <mxCell id="FjqpXkmfoo5-FY0LMX71-108" value="" style="endArrow=none;html=1;rounded=0;entryX=1;entryY=0.75;entryDx=0;entryDy=0;" edge="1" parent="1" target="FjqpXkmfoo5-FY0LMX71-49">
          <mxGeometry width="50" height="50" relative="1" as="geometry">
            <mxPoint x="900" y="823" as="sourcePoint" />
            <mxPoint x="940" y="870" as="targetPoint" />
          </mxGeometry>
        </mxCell>
        <mxCell id="FjqpXkmfoo5-FY0LMX71-109" value="" style="endArrow=none;html=1;rounded=0;" edge="1" parent="1">
          <mxGeometry width="50" height="50" relative="1" as="geometry">
            <mxPoint x="900" y="1160" as="sourcePoint" />
            <mxPoint x="900" y="820" as="targetPoint" />
          </mxGeometry>
        </mxCell>
        <mxCell id="FjqpXkmfoo5-FY0LMX71-110" value="" style="endArrow=classic;html=1;rounded=0;entryX=1;entryY=0.5;entryDx=0;entryDy=0;" edge="1" parent="1" target="FjqpXkmfoo5-FY0LMX71-100">
          <mxGeometry width="50" height="50" relative="1" as="geometry">
            <mxPoint x="900" y="1154" as="sourcePoint" />
            <mxPoint x="750" y="1060" as="targetPoint" />
          </mxGeometry>
        </mxCell>
        <mxCell id="FjqpXkmfoo5-FY0LMX71-111" value="" style="endArrow=none;html=1;rounded=0;exitX=1;exitY=0.75;exitDx=0;exitDy=0;" edge="1" parent="1" source="FjqpXkmfoo5-FY0LMX71-27">
          <mxGeometry width="50" height="50" relative="1" as="geometry">
            <mxPoint x="650" y="530" as="sourcePoint" />
            <mxPoint x="960" y="510" as="targetPoint" />
          </mxGeometry>
        </mxCell>
        <mxCell id="FjqpXkmfoo5-FY0LMX71-112" value="" style="endArrow=none;html=1;rounded=0;" edge="1" parent="1">
          <mxGeometry width="50" height="50" relative="1" as="geometry">
            <mxPoint x="960" y="1210" as="sourcePoint" />
            <mxPoint x="960" y="510" as="targetPoint" />
          </mxGeometry>
        </mxCell>
        <mxCell id="FjqpXkmfoo5-FY0LMX71-113" value="" style="endArrow=classic;html=1;rounded=0;entryX=1;entryY=0.5;entryDx=0;entryDy=0;" edge="1" parent="1" target="FjqpXkmfoo5-FY0LMX71-101">
          <mxGeometry width="50" height="50" relative="1" as="geometry">
            <mxPoint x="960" y="1204" as="sourcePoint" />
            <mxPoint x="750" y="1060" as="targetPoint" />
          </mxGeometry>
        </mxCell>
        <mxCell id="FjqpXkmfoo5-FY0LMX71-114" value="" style="endArrow=none;html=1;rounded=0;entryX=0.988;entryY=0.899;entryDx=0;entryDy=0;entryPerimeter=0;" edge="1" parent="1" target="FjqpXkmfoo5-FY0LMX71-27">
          <mxGeometry width="50" height="50" relative="1" as="geometry">
            <mxPoint x="1030" y="520" as="sourcePoint" />
            <mxPoint x="750" y="540" as="targetPoint" />
          </mxGeometry>
        </mxCell>
        <mxCell id="FjqpXkmfoo5-FY0LMX71-115" value="" style="endArrow=none;html=1;rounded=0;" edge="1" parent="1">
          <mxGeometry width="50" height="50" relative="1" as="geometry">
            <mxPoint x="1030" y="1350" as="sourcePoint" />
            <mxPoint x="1030" y="520" as="targetPoint" />
          </mxGeometry>
        </mxCell>
        <mxCell id="FjqpXkmfoo5-FY0LMX71-116" value="" style="endArrow=classic;html=1;rounded=0;entryX=1;entryY=0.5;entryDx=0;entryDy=0;" edge="1" parent="1" target="FjqpXkmfoo5-FY0LMX71-102">
          <mxGeometry width="50" height="50" relative="1" as="geometry">
            <mxPoint x="1030" y="1345" as="sourcePoint" />
            <mxPoint x="750" y="1170" as="targetPoint" />
          </mxGeometry>
        </mxCell>
        <mxCell id="FjqpXkmfoo5-FY0LMX71-118" value="АКО" style="ellipse;whiteSpace=wrap;html=1;" vertex="1" parent="1">
          <mxGeometry x="379" y="570" width="70" height="30" as="geometry" />
        </mxCell>
        <mxCell id="FjqpXkmfoo5-FY0LMX71-119" value="АКО" style="ellipse;whiteSpace=wrap;html=1;" vertex="1" parent="1">
          <mxGeometry x="370" y="690" width="70" height="30" as="geometry" />
        </mxCell>
        <mxCell id="FjqpXkmfoo5-FY0LMX71-120" value="" style="endArrow=none;html=1;rounded=0;exitX=1;exitY=0.5;exitDx=0;exitDy=0;entryX=0.014;entryY=0.417;entryDx=0;entryDy=0;entryPerimeter=0;" edge="1" parent="1" source="FjqpXkmfoo5-FY0LMX71-118" target="FjqpXkmfoo5-FY0LMX71-79">
          <mxGeometry width="50" height="50" relative="1" as="geometry">
            <mxPoint x="700" y="590" as="sourcePoint" />
            <mxPoint x="750" y="540" as="targetPoint" />
          </mxGeometry>
        </mxCell>
        <mxCell id="FjqpXkmfoo5-FY0LMX71-121" value="" style="endArrow=none;html=1;rounded=0;exitX=1;exitY=0.5;exitDx=0;exitDy=0;" edge="1" parent="1" source="FjqpXkmfoo5-FY0LMX71-119" target="FjqpXkmfoo5-FY0LMX71-80">
          <mxGeometry width="50" height="50" relative="1" as="geometry">
            <mxPoint x="700" y="590" as="sourcePoint" />
            <mxPoint x="750" y="540" as="targetPoint" />
          </mxGeometry>
        </mxCell>
        <mxCell id="FjqpXkmfoo5-FY0LMX71-122" value="" style="endArrow=classic;html=1;rounded=0;entryX=1;entryY=0.154;entryDx=0;entryDy=0;entryPerimeter=0;" edge="1" parent="1" target="FjqpXkmfoo5-FY0LMX71-79">
          <mxGeometry width="50" height="50" relative="1" as="geometry">
            <mxPoint x="690" y="560" as="sourcePoint" />
            <mxPoint x="750" y="640" as="targetPoint" />
          </mxGeometry>
        </mxCell>
        <mxCell id="FjqpXkmfoo5-FY0LMX71-123" value="" style="endArrow=classic;html=1;rounded=0;entryX=0.988;entryY=0.411;entryDx=0;entryDy=0;entryPerimeter=0;" edge="1" parent="1" target="FjqpXkmfoo5-FY0LMX71-80">
          <mxGeometry width="50" height="50" relative="1" as="geometry">
            <mxPoint x="690" y="699" as="sourcePoint" />
            <mxPoint x="750" y="640" as="targetPoint" />
          </mxGeometry>
        </mxCell>
        <mxCell id="FjqpXkmfoo5-FY0LMX71-124" value="" style="endArrow=none;html=1;rounded=0;entryX=1;entryY=0.75;entryDx=0;entryDy=0;" edge="1" parent="1" target="FjqpXkmfoo5-FY0LMX71-79">
          <mxGeometry width="50" height="50" relative="1" as="geometry">
            <mxPoint x="1080" y="610" as="sourcePoint" />
            <mxPoint x="750" y="750" as="targetPoint" />
          </mxGeometry>
        </mxCell>
        <mxCell id="FjqpXkmfoo5-FY0LMX71-125" value="" style="endArrow=none;html=1;rounded=0;" edge="1" parent="1">
          <mxGeometry width="50" height="50" relative="1" as="geometry">
            <mxPoint x="1080" y="1400" as="sourcePoint" />
            <mxPoint x="1080" y="610" as="targetPoint" />
          </mxGeometry>
        </mxCell>
        <mxCell id="FjqpXkmfoo5-FY0LMX71-126" value="" style="endArrow=classic;html=1;rounded=0;entryX=1;entryY=0.5;entryDx=0;entryDy=0;" edge="1" parent="1" target="FjqpXkmfoo5-FY0LMX71-103">
          <mxGeometry width="50" height="50" relative="1" as="geometry">
            <mxPoint x="1080" y="1395" as="sourcePoint" />
            <mxPoint x="750" y="1170" as="targetPoint" />
          </mxGeometry>
        </mxCell>
      </root>
    </mxGraphModel>
  </diagram>
</mxfile>
